#!OML:ASF G:\JayActor3\Patient Classification 1\Patient 1\Session 6\male.ASF
:FULLY-SPECIFIED
:DEGREES
462
root 25.8561 16.1625 -9.29752 -2.39505 -59.9119 -7.34348
lowerback -0.408378 -0.690865 4.90715
upperback 0.0777701 -0.953933 0.55928
thorax 0.238718 -0.472528 -2.18052
lowerneck 1.95013 -0.86455 3.31339
upperneck 12.7121 -0.96787 -4.35784
head 3.76759 -0.578226 -2.06533
rclavicle 5.98932e-014 -1.66234e-014
rhumerus 0.341353 15.2225 -58.4785
rradius 76.6327
rwrist -22.1255
rhand -26.0712 -10.389
rfingers 7.12502
rthumb 0.477007 -40.3682
lclavicle 5.98932e-014 -1.66234e-014
lhumerus 10.907 -0.810322 62.4378
lradius 101.434
lwrist 29.4904
lhand -25.9472 7.71574
lfingers 7.12502
lthumb 0.596736 37.6947
rfemur -11.2081 -3.08366 30.8462
rtibia 29.396
rfoot -14.1287 -12.8509
rtoes 10.8413
lfemur 7.47802 8.03108 -9.86628
ltibia 58.1024
lfoot 15.5838 0.135113
ltoes -9.56362
463
root 25.7061 16.1578 -9.218 -1.656 -59.9801 -8.27027
lowerback -0.288141 -0.635754 5.40265
upperback 0.145223 -0.879722 0.68985
thorax 0.240994 -0.434265 -2.32214
lowerneck 1.94873 -0.878238 3.29416
upperneck 12.6892 -0.985293 -4.36072
head 3.75887 -0.587396 -2.06274
rclavicle -3.63869e-014 -3.59055e-015
rhumerus 0.35686 15.1751 -58.4994
rradius 76.437
rwrist -22.1393
rhand -26.2763 -10.4745
rfingers 7.12502
rthumb 0.278918 -40.4541
lclavicle -3.63869e-014 -3.59055e-015
lhumerus 10.9597 -0.867445 62.5893
lradius 101.623
lwrist 29.3914
lhand -26.2557 7.63372
lfingers 7.12502
lthumb 0.298736 37.6133
rfemur -10.4188 -3.1101 31.3876
rtibia 29.2879
rfoot -14.5204 -12.8851
rtoes 10.7839
lfemur 5.4219 7.47426 -9.61112
ltibia 60.3247
lfoot 13.4627 -0.0797575
ltoes -9.8172
464
root 25.5568 16.1524 -9.1417 -1.08523 -60.062 -8.96912
lowerback -0.186886 -0.571938 5.73911
upperback 0.207706 -0.793234 0.795665
thorax 0.252608 -0.389703 -2.40045
lowerneck 1.94006 -0.89144 3.27219
upperneck 12.6852 -1.00332 -4.35171
head 3.75821 -0.596779 -2.05613
rclavicle 1.77384e-014 2.25248e-014
rhumerus 0.382797 15.1137 -58.5385
rradius 76.2231
rwrist -22.1707
rhand -26.4761 -10.5553
rfingers 7.12502
rthumb 0.0859437 -40.5351
lclavicle 1.77384e-014 2.25248e-014
lhumerus 11.0175 -0.935542 62.7316
lradius 101.803
lwrist 29.2802
lhand -26.5503 7.55677
lfingers 7.12502
lthumb 0.0142451 37.5365
rfemur -9.72988 -3.03365 31.8271
rtibia 29.2867
rfoot -14.953 -12.9917
rtoes 10.6713
lfemur 3.36841 6.89684 -9.50645
ltibia 62.22
lfoot 11.1773 -0.407773
ltoes -10.1951
465
root 25.4084 16.1458 -9.06797 -0.665463 -60.1657 -9.47311
lowerback -0.0944617 -0.498636 5.94759
upperback 0.268532 -0.693419 0.876311
thorax 0.270491 -0.338325 -2.43324
lowerneck 1.92012 -0.903444 3.24945
upperneck 12.7038 -1.02094 -4.33214
head 3.76771 -0.605886 -2.04644
rclavicle 2.39194e-014 -6.5102e-015
rhumerus 0.417167 15.0366 -58.6018
rradius 75.9905
rwrist -22.2116
rhand -26.6525 -10.6343
rfingers 7.12502
rthumb -0.0844457 -40.614
lclavicle 2.39194e-014 -6.5102e-015
lhumerus 11.0778 -1.01405 62.8588
lradius 101.976
lwrist 29.1606
lhand -26.8296 7.48684
lfingers 7.12502
lthumb -0.25553 37.4664
rfemur -9.12717 -2.8767 32.1795
rtibia 29.3958
rfoot -15.4306 -13.1465
rtoes 10.4858
lfemur 1.33482 6.31102 -9.52552
ltibia 63.7914
lfoot 8.80089 -0.850872
ltoes -10.6933
466
root 25.261 16.1376 -8.99595 -0.355956 -60.297 -9.84057
lowerback -0.000464121 -0.41602 6.07418
upperback 0.329515 -0.580276 0.934866
thorax 0.289797 -0.280218 -2.44306
lowerneck 1.88902 -0.913754 3.22943
upperneck 12.744 -1.03716 -4.30588
head 3.78708 -0.614204 -2.03555
rclavicle -2.51307e-014 2.68359e-014
rhumerus 0.457162 14.9452 -58.6931
rradius 75.7402
rwrist -22.2521
rhand -26.7902 -10.7145
rfingers 7.12502
rthumb -0.217493 -40.6941
lclavicle -2.51307e-014 2.68359e-014
lhumerus 11.1364 -1.10099 62.9639
lradius 102.146
lwrist 29.0399
lhand -27.0931 7.42527
lfingers 7.12502
lthumb -0.50998 37.4044
rfemur -8.59005 -2.66753 32.4699
rtibia 29.6028
rfoot -15.9501 -13.3227
rtoes 10.2198
lfemur -0.664651 5.73208 -9.62962
ltibia 65.0537
lfoot 6.37757 -1.3779
ltoes -11.3098
467
root 25.1151 16.1275 -8.92476 -0.109888 -60.4595 -10.1324
lowerback 0.102314 -0.324781 6.16473
upperback 0.390708 -0.454504 0.975617
thorax 0.305878 -0.215832 -2.45115
lowerneck 1.85061 -0.922101 3.21439
upperneck 12.8011 -1.05127 -4.27659
head 3.81398 -0.621341 -2.02497
rclavicle 4.62858e-014 -7.20594e-016
rhumerus 0.499194 14.8445 -58.8139
rradius 75.4741
rwrist -22.2838
rhand -26.8845 -10.7964
rfingers 7.12502
rthumb -0.308515 -40.776
lclavicle 4.62858e-014 -7.20594e-016
lhumerus 11.1886 -1.19382 63.0415
lradius 102.317
lwrist 28.9265
lhand -27.3386 7.37213
lfingers 7.12502
lthumb -0.747166 37.3506
rfemur -8.09752 -2.4335 32.7238
rtibia 29.8865
rfoot -16.504 -13.4964
rtoes 9.88733
lfemur -2.62084 5.17479 -9.78126
ltibia 66.0287
lfoot 3.93773 -1.93319
ltoes -12.0262
